<svg width="12" height="16" viewBox="0 0 12 16" fill="none" xmlns="http://www.w3.org/2000/svg">
<path d="M10.5852 7.13724L11.0596 6.9794L11.0596 6.97939L10.5852 7.13724ZM9.72697 5.14267L10.1614 4.89519C10.0546 4.70763 9.83943 4.60981 9.62785 4.6526C9.41628 4.69539 9.25605 4.86912 9.23048 5.08346L9.72697 5.14267ZM8.4037 7.36091H7.9037C7.9037 7.55134 8.01188 7.72525 8.18271 7.80942C8.35353 7.89359 8.55734 7.87341 8.70835 7.75738L8.4037 7.36091ZM7.00587 3.87801L7.41883 3.59613L7.41882 3.59611L7.00587 3.87801ZM4.3951 1.33337L4.71142 0.946153C4.56186 0.823973 4.3553 0.798852 4.18081 0.881621C4.00632 0.96439 3.8951 1.14025 3.8951 1.33337H4.3951ZM2.69073 6.03344L2.31769 5.70051L2.31768 5.70053L2.69073 6.03344ZM1.50913 7.48841L1.08324 7.22646L1.08323 7.22648L1.50913 7.48841ZM6 15.1667C9.01365 15.1667 11.4999 12.7749 11.4999 9.69941H10.4999C10.4999 12.208 8.47615 14.1667 6 14.1667V15.1667ZM11.4999 9.69941C11.4999 8.97856 11.4614 8.18708 11.0596 6.9794L10.1107 7.29508C10.4688 8.37134 10.4999 9.04939 10.4999 9.69941H11.4999ZM11.0596 6.97939C10.8701 6.40976 10.7495 6.06733 10.6225 5.77621C10.4936 5.48075 10.3612 5.24591 10.1614 4.89519L9.29251 5.39016C9.49446 5.74468 9.60123 5.93614 9.70598 6.17618C9.81262 6.42055 9.92033 6.72278 10.1107 7.29509L11.0596 6.97939ZM9.23048 5.08346C9.08557 6.29863 8.33034 6.78672 8.09905 6.96444L8.70835 7.75738C8.94366 7.57657 10.0251 6.86505 10.2234 5.20188L9.23048 5.08346ZM8.9037 7.36091C8.9037 7.27335 8.88076 7.16581 8.86654 7.10106C8.84741 7.01394 8.8202 6.90476 8.78607 6.77981C8.71766 6.52935 8.61831 6.20403 8.49224 5.84615C8.24299 5.13857 7.87644 4.26653 7.41883 3.59613L6.5929 4.15989C6.9776 4.72348 7.30996 5.49965 7.54905 6.17839C7.66715 6.51367 7.75933 6.81605 7.82141 7.0433C7.85252 7.15721 7.87529 7.24939 7.88982 7.31558C7.90928 7.40414 7.9037 7.40184 7.9037 7.36091H8.9037ZM7.41882 3.59611C6.54031 2.30915 5.33871 1.45859 4.71142 0.946153L4.07878 1.72059C4.77022 2.28544 5.81769 3.02427 6.59291 4.1599L7.41882 3.59611ZM3.8951 1.33337C3.8951 1.80457 3.82806 2.40662 3.70977 2.98635C3.59017 3.57255 3.42686 4.0927 3.25366 4.41844L4.13661 4.88791C4.37557 4.43848 4.56225 3.81036 4.68959 3.18627C4.81824 2.5557 4.8951 1.88543 4.8951 1.33337H3.8951ZM3.25366 4.41844C3.05108 4.79943 2.94424 4.97074 2.8349 5.11311C2.71459 5.26975 2.59422 5.39067 2.31769 5.70051L3.06377 6.36637C3.30208 6.09935 3.47783 5.91772 3.62797 5.72223C3.78908 5.51248 3.92702 5.28209 4.13661 4.88791L3.25366 4.41844ZM2.31768 5.70053C1.83067 6.24626 1.5444 6.47669 1.08324 7.22646L1.93502 7.75036C2.33487 7.10026 2.5212 6.97436 3.06379 6.36636L2.31768 5.70053ZM1.08323 7.22648C0.57524 8.05248 0.5 9.10655 0.5 9.80607H1.5C1.5 9.13473 1.58207 8.32427 1.93504 7.75034L1.08323 7.22648ZM0.5 9.80607C0.5 12.8957 3.00086 15.1667 6 15.1667V14.1667C3.50934 14.1667 1.5 12.3006 1.5 9.80607H0.5Z" fill="#0B76E0"/>
</svg>
